<?xml version="1.0" encoding="UTF-8"?>
<svg width="700pt" height="700pt" version="1.1" viewBox="0 0 700 700" xmlns="http://www.w3.org/2000/svg">
 <path d="m490 192.5v52.5h-35c-28.996 0-52.5 23.504-52.5 52.5v3.0117c-5.5664-1.9766-11.48-3.0117-17.5-3.0117h-70c-13.93 0-27.281 5.5312-37.117 15.383-9.8516 9.8359-15.383 23.188-15.383 37.117v3.0117c-5.5664-1.9766-11.48-3.0117-17.5-3.0117h-70c-28.996 0-52.5 23.504-52.5 52.5v52.5c0 28.996 23.504 52.5 52.5 52.5h350c28.996 0 52.5-23.504 52.5-52.5v-157.5c0-28.996-23.504-52.5-52.5-52.5v-175c0-9.6602-7.8398-17.5-17.5-17.5h-120.17c-7.4727 0-14.191 4.4961-17.062 11.391-2.8516 6.9141-1.2773 14.84 4.0078 20.125l38.484 38.484-38.484 38.484c-5.2852 5.2852-6.8594 13.211-4.0078 20.125 2.8711 6.8945 9.5898 11.391 17.062 11.391zm-227.5 210v70h-87.5c-9.6602 0-17.5-7.8398-17.5-17.5v-52.5c0-9.6602 7.8398-17.5 17.5-17.5h70c4.6367 0 9.1016 1.8359 12.371 5.1289 3.2891 3.2734 5.1289 7.7344 5.1289 12.371zm140-52.5v122.5h-105v-122.5c0-4.6367 1.8359-9.1016 5.1289-12.371 3.2734-3.2891 7.7344-5.1289 12.371-5.1289h70c4.6367 0 9.1016 1.8359 12.371 5.1289 3.2891 3.2734 5.1289 7.7344 5.1289 12.371zm140-52.5v157.5c0 9.6602-7.8398 17.5-17.5 17.5h-87.5v-175c0-9.6602 7.8398-17.5 17.5-17.5h70c9.6602 0 17.5 7.8398 17.5 17.5zm-115.25-210h62.754v70h-62.754l21.945-21.945c3.4648-3.4648 5.4062-8.1562 5.4062-13.055s-1.9414-9.5898-5.4062-13.055z" fill-rule="evenodd"/>
</svg>
